<?xml version="1.0" standalone="no"?>
<!DOCTYPE svg PUBLIC "-//W3C//DTD SVG 20010904//EN"
 "http://www.w3.org/TR/2001/REC-SVG-20010904/DTD/svg10.dtd">
<svg version="1.0" xmlns="http://www.w3.org/2000/svg"
 width="1000.000000pt" height="500.000000pt" viewBox="0 0 1000.000000 500.000000"
 preserveAspectRatio="xMidYMid meet">
<metadata>
Created by potrace 1.14, written by Peter Selinger 2001-2017
</metadata>
<g transform="translate(0.000000,500.000000) scale(0.100000,-0.100000)"
fill="#000000" stroke="none">
<path d="M1330 4580 c-79 -13 -289 -78 -330 -103 -146 -88 -253 -218 -315
-382 -99 -262 -85 -584 40 -875 157 -366 524 -782 1233 -1394 101 -87 186
-165 189 -172 3 -7 -62 -85 -150 -181 -363 -392 -506 -602 -596 -872 -75 -224
-40 -377 98 -426 58 -20 112 -19 205 5 145 37 318 132 491 271 134 107 332
307 390 394 152 228 137 437 -50 684 -46 60 -54 76 -43 86 36 34 177 151 298
248 l135 108 6 -668 c7 -675 15 -835 45 -900 24 -49 103 -93 170 -93 28 0 53
2 56 5 3 3 -7 29 -23 58 -97 179 -136 586 -125 1292 6 409 6 410 29 428 28 23
252 157 262 157 4 0 18 -9 32 -20 48 -38 137 -19 185 39 32 37 124 225 199
405 29 70 54 124 56 120 1 -5 9 -75 18 -155 17 -159 38 -256 60 -279 9 -8 41
-16 79 -18 53 -3 74 0 118 20 75 35 150 98 200 168 l42 61 13 -58 c26 -111
102 -200 219 -255 60 -28 72 -30 144 -26 117 7 171 37 300 168 103 105 278
319 313 382 l17 33 0 -65 c0 -36 -5 -154 -10 -262 l-10 -198 27 -44 c30 -49
62 -69 97 -60 21 5 24 13 30 86 28 340 170 858 311 1138 36 71 58 90 72 62 4
-9 8 -210 9 -447 1 -471 5 -510 56 -548 41 -31 75 -17 89 36 95 360 310 820
360 770 6 -6 17 -71 25 -145 33 -333 82 -476 192 -553 38 -26 52 -30 111 -30
l67 0 0 -85 c2 -113 17 -166 64 -212 32 -33 44 -38 81 -38 148 1 347 215 537
578 35 68 65 122 67 120 1 -2 -2 -34 -7 -73 -5 -38 -10 -142 -11 -230 -2 -190
9 -249 59 -302 33 -35 35 -35 97 -31 51 3 76 11 121 38 93 56 189 161 242 262
l45 88 77 -58 c42 -32 120 -88 172 -124 52 -37 111 -80 130 -96 l35 -30 -105
-108 c-59 -60 -121 -131 -140 -159 -91 -132 -105 -260 -37 -333 64 -69 168
-82 262 -32 131 69 248 190 317 327 27 56 30 70 26 126 -6 71 -35 144 -78 199
l-30 37 142 109 c158 122 259 213 241 219 -16 6 -124 -58 -291 -169 -73 -49
-139 -91 -147 -94 -8 -3 -33 7 -57 24 -24 16 -90 55 -148 87 -321 178 -466
326 -478 487 -6 78 2 102 50 154 76 82 169 116 318 116 123 -1 203 -25 298
-92 65 -46 92 -59 92 -45 0 23 -70 135 -106 172 -90 89 -274 147 -400 126
-284 -49 -470 -359 -359 -600 16 -35 53 -84 101 -134 l77 -79 -74 -86 c-98
-115 -146 -149 -209 -149 -103 0 -126 62 -124 330 2 187 17 354 60 659 22 148
24 180 12 188 -21 15 -158 2 -219 -21 -159 -60 -307 -204 -459 -446 -82 -131
-176 -328 -200 -419 l-24 -88 -53 4 c-44 4 -60 11 -89 39 -76 74 -106 183
-134 489 -28 309 -37 341 -101 355 -100 22 -213 -143 -340 -500 l-54 -150 -7
135 c-4 74 -11 244 -17 378 -10 262 -14 281 -72 324 -24 18 -29 18 -61 5 -96
-40 -237 -309 -335 -639 -20 -70 -39 -125 -41 -123 -2 2 2 122 8 267 6 144 14
335 17 424 l6 160 -39 33 c-28 23 -47 31 -69 29 l-30 -3 -6 -85 c-4 -47 -10
-257 -14 -468 l-7 -383 -38 -57 c-85 -126 -352 -391 -462 -458 -149 -91 -250
-83 -310 22 l-28 50 128 130 c70 71 151 161 180 199 112 151 207 378 219 523
8 102 -1 145 -38 186 -39 45 -95 66 -182 68 -85 2 -143 -20 -207 -78 -153
-139 -280 -491 -280 -779 l0 -93 -67 -73 c-81 -87 -176 -159 -210 -159 -59 0
-94 52 -112 167 -17 107 -13 420 8 668 11 121 17 223 15 227 -8 12 -100 19
-125 9 -26 -9 -26 -10 -31 -148 -5 -136 -23 -236 -69 -398 -81 -282 -218 -551
-271 -530 -65 25 -81 228 -57 750 13 303 13 573 1 606 -12 29 -55 49 -107 49
l-32 0 4 -532 c3 -498 15 -886 29 -969 l6 -35 -120 -62 c-66 -34 -123 -62
-127 -62 -13 0 15 797 40 1135 7 99 12 181 10 183 -1 2 -33 8 -70 13 -165 26
-332 -47 -494 -216 -227 -237 -404 -654 -389 -918 4 -66 9 -84 34 -120 16 -23
49 -55 73 -72 39 -27 50 -30 120 -30 71 0 84 3 167 44 77 38 104 60 205 160
64 64 128 132 143 151 l26 35 -2 -224 -3 -224 -175 -108 c-96 -60 -226 -138
-288 -175 l-112 -66 -63 59 c-34 32 -105 94 -157 138 -336 282 -695 611 -817
746 -258 289 -410 522 -490 754 -36 105 -38 115 -38 240 1 119 3 135 28 195
58 138 161 242 312 314 143 69 197 81 370 81 131 0 159 -3 223 -24 94 -31 171
-81 273 -178 l82 -78 -7 49 c-5 28 -21 88 -38 135 -27 76 -39 94 -102 159
-172 177 -384 256 -596 222z m3561 -1111 c19 -19 20 -28 14 -92 -14 -134 -45
-219 -125 -337 -55 -81 -126 -156 -210 -223 l-75 -60 -3 42 c-4 55 22 191 58
300 56 173 140 318 212 369 42 29 101 29 129 1z m2639 -11 c-1 -45 -35 -196
-66 -293 -39 -120 -146 -337 -222 -449 -80 -119 -203 -249 -257 -272 -36 -15
-40 -15 -52 2 -22 30 -27 86 -14 174 40 278 263 660 482 824 45 34 70 46 95
46 32 0 34 -2 34 -32z m-4555 -109 c9 -26 -2 -172 -21 -277 -40 -226 -174
-485 -322 -623 -139 -131 -262 -144 -318 -36 -37 71 7 270 105 474 92 189 186
314 304 400 101 74 238 108 252 62z m5620 -1086 c71 -78 69 -116 -12 -231
-101 -143 -276 -217 -299 -127 -8 34 48 152 111 230 58 73 146 165 158 165 4
0 23 -17 42 -37z m-6237 -815 c238 -194 140 -601 -199 -829 -222 -149 -446
-222 -537 -175 -41 21 -46 46 -28 133 32 153 178 378 409 627 101 110 284 276
303 276 6 0 30 -15 52 -32z"/>
</g>
</svg>
