<?xml version="1.0" encoding="utf-8"?>
<!-- Generator: Adobe Illustrator 19.2.0, SVG Export Plug-In . SVG Version: 6.00 Build 0)  -->
<svg version="1.0" id="Capa_1" xmlns="http://www.w3.org/2000/svg" xmlns:xlink="http://www.w3.org/1999/xlink" x="0px" y="0px"
	 viewBox="0 0 1000 1000" enable-background="new 0 0 1000 1000" xml:space="preserve">
<g>
</g>
<g>
	<path fill="#FFFFFF" d="M513.9,23.4c257.3-1.1,467.1,210,467.1,466.8c0,257-210.1,467.4-467.7,467.1
		C256.3,957,45.9,746.4,46.8,488.3C47.8,232.5,257.1,22.3,513.9,23.4z M513.5,930.7C755.6,931.1,954,734,954.4,490.8
		c0.4-242-196.5-440.6-439.8-441C272.3,49.3,73.9,246.5,73.4,489.3C72.9,732.3,270.6,930.6,513.5,930.7z"/>
	<path fill="#FFFFFF" d="M399.3,540.5c-3.9,5.3-6.7,9.5-9.9,13.4c-20.7,25.4-47.7,34.1-79.4,29c-20.3-3.3-33.5-16.2-42.1-34.3
		c-7-14.7-9.1-30.5-9.1-46.4c0.1-23.1,3.7-45.6,13.7-66.7c14.6-30.8,35.7-55,70.7-62.4c22.6-4.8,45.1-4.9,65.3,9.4
		c5.2,3.6,4.6-1.6,4.8-3.9c1.1-12,2-24,2.7-36.1c1.1-18.2,2-36.4,2.8-54.6c0.2-5.3,2.1-7.5,7.6-7.5c14.2-0.1,28.4-0.9,42.6-1.2
		c7.5-0.2,7.8,0.2,6.7,7.4c-4.2,29.3-10.2,58.4-13.7,87.8c-3.4,28.2-6.5,56.3-8.4,84.7c-1.9,28.3-2.8,56.7-2.3,85.1
		c0.2,9.5,0.6,19.1,1.3,28.6c0.3,4.8-1.4,7.1-6.3,7.2c-12.5,0.4-25,1-37.5,1.6c-4.4,0.2-6.6-1.1-6.9-5.9
		C401.4,564.6,400.3,553.4,399.3,540.5z M314,493.6c0.9,8.2,0.9,18.4,4.3,28.1c4.8,14,13.4,20.9,28.1,21.6
		c10.6,0.5,19.3-4.3,26.6-11.5c10.1-10,17-22.1,22.8-34.9c10.6-23.3,10.5-48.6,13.8-73.3c0.4-3.2-1.9-4.4-4.2-5.6
		c-8.4-4.7-17.6-6.5-26.9-6.6c-19.7-0.2-36.6,5.9-48.2,23.1C318.8,451.8,314.6,471.3,314,493.6z"/>
	<path fill="#FFFFFF" d="M560.9,579.1c-26.1,0-52.1-0.2-78.2,0.1c-5.8,0.1-7.4-1.6-6.7-7.3c3.7-27.9,7.3-55.8,10.7-83.8
		c3.7-30,7.3-60.1,9.8-90.3c2.4-29.3,4.9-58.7,5.1-88.1c0-4.9,1.9-6.6,6.9-6.6c51.1,0.1,102.2,0.1,153.3,0c4.1,0,6.5,0.7,5.8,5.6
		c-1.9,12.6-3.6,25.1-5.3,37.7c-0.5,3.8-3,4.7-6.3,4.5c-6.8-0.4-13.5-0.9-20.3-1.1c-25.4-0.8-50.8-1.5-76.2-2.4
		c-4.6-0.2-6.2,1.2-6.6,6c-1.3,18.4-3,36.7-4.6,55.1c-0.6,6.3,0.1,7.1,7.8,6.6c23.9-1.5,47.9-0.4,71.8-2.2c9.6-0.7,10,0.4,8.7,10
		c-1.3,9.7-2.5,19.3-3.3,29c-0.4,4.7-2.4,6.3-6.9,6c-24.1-2-48.3-0.6-72.4-2.2c-10.3-0.7-10.4-0.6-11.4,9.8
		c-1.9,21.1-3.9,42.2-6,63.2c-0.5,5,1.4,6.3,6,6.1c28.8-0.9,57.6-1.6,86.4-2.5c6.6-0.2,13.1-0.7,19.7-1.2c3.3-0.2,5.4,0.7,4.8,4.6
		c-1.9,13.2-3.7,26.4-5.7,39.6c-0.7,4.5-4.5,3.7-7.5,3.7C613.9,579.2,587.4,579.1,560.9,579.1z"/>
	<path fill="#FFFFFF" d="M736.1,413.5c3.4-1.6,4.3-4.9,6.1-7.4c19.3-28,46.6-38.5,79.4-34.7c25.2,2.9,40.1,20.2,43.3,46.7
		c2.5,20-0.2,39.8-2,59.5c-2.9,31.6-7.4,63.1-8.2,94.9c-0.1,5.1-2,7.3-7,7.5c-14.4,0.4-28.8,0.9-43.2,1.6c-4.8,0.2-6.1-1.5-5.7-6.4
		c2.2-27,6.9-53.7,9.9-80.7c2.3-20.4,4.9-40.8,2.4-61.4c-2.6-22-23-24.7-36.8-19c-7.2,3-12.7,8.3-17.7,14.2
		c-16.5,19.8-24.2,43-26.8,68.2c-2.6,25.7-5.2,51.4-6.5,77.2c-0.2,4.3-2.3,6.1-6.3,6.2c-14.4,0.5-28.8,1-43.2,1.6
		c-4.2,0.2-5.5-1.4-4.9-5.7c3.5-27.9,7-55.9,10.2-83.8c4-35.6,5.6-71.4,1-107.1c-0.6-4.7,0.9-6.8,5.4-7.2
		c13.9-1.3,27.8-2.7,41.7-4.1c4.5-0.5,6.3,1.1,6.7,5.9c0.8,9.1,0.9,18.2,1.1,27.3C735.1,408.9,734.5,411.3,736.1,413.5z"/>
	<path fill="#FFFFFF" d="M218.8,303.3c7.8,0,15.7,0.2,23.5-0.1c4.7-0.2,6.3,1.2,5.6,6.2c-3,22-5.9,44-8.5,66.1
		c-3.3,28.1-6.6,56.3-9.6,84.5c-3.9,37.7-6.2,75.5-7.7,113.4c-0.1,3.9-1.6,5.7-5.7,5.7c-16.5-0.1-33.1-0.1-49.6,0
		c-4.4,0-5.5-2-5-5.9c3.5-27.1,7.2-54.1,10.5-81.2c3.6-29,7.3-57.9,9.8-87c2.7-30.6,4.9-61.2,5.5-91.9c0.2-9.8,0.5-9.8,10.1-9.8
		C204.8,303.3,211.8,303.3,218.8,303.3z"/>
	<path fill="#FFFFFF" d="M574.5,647.7c0,5.1-0.3,10.2,0.1,15.2c0.5,7.6-4.7,6.3-9.3,6.6c-5,0.3-6.6-1.6-6.6-6.6
		c0-8.9,2-17.7,0.3-26.6c-1.1-5.9-4.3-9.2-9.6-8.7c-5.8,0.5-8.6,3.4-8.2,9.6c0.4,8.5-0.1,17,0.3,25.4c0.4,6.6-3.2,7-8.3,7
		c-4.9,0-8.1-0.5-7.7-6.8c0.6-8.4,0.5-16.9,0.3-25.4c-0.2-7.2-3.2-10.1-9.6-9.9c-6.4,0.2-9,3.1-9,10.2c0,8.5-0.3,17,0.1,25.4
		c0.4,7.9-4.9,6-9.3,6.4c-4.9,0.4-7.2-1.4-6.6-6.5c1.6-14.2,1.4-28.3-1-42.4c-0.3-1.8-0.2-3.9,2-3.9c4.6-0.2,10.3-5.1,13.6,2.5
		c0.8,1.9,2.1,0.4,3.1-0.1c9.4-5.4,18.8-6.2,27.7,1c2.1,1.7,3.5,0.3,5.1-0.8c3-2,6.3-3.5,9.9-4c14.9-2.1,22.5,4.6,22.7,19.7
		C574.5,639.2,574.5,643.5,574.5,647.7z"/>
	<path fill="#FFFFFF" d="M668,635.1c-3.1,9.8-6.4,19.6-9.2,29.5c-1.1,3.9-3.1,5.2-6.8,4.9c-3.6-0.3-7.5,1.2-9.3-4.2
		c-4.6-13.9-9.6-27.6-14.4-41.4c-2.4-6.9-2-7.3,4.9-7.4c9.7-0.1,9.7-0.1,12.2,9.3c2.3,8.4,4.6,16.7,7.2,26
		c3.3-10.2,6.6-19.7,9.2-29.3c1.3-4.8,3.8-6.3,8.6-6.2c4.6,0.1,7.4,1.1,8.6,6.1c2.4,9.4,5.5,18.6,8.9,29.8
		c3.1-11.1,5.8-20.4,8.4-29.6c1.5-5.3,9.3-8.6,14-5.7c2.6,1.6,1.1,3.9,0.4,5.7c-4,10.9-8.3,21.8-12.4,32.7c-0.9,2.4-2.1,4.7-2.5,7.2
		c-1,5.7-4.1,7.2-9.7,7.3c-6,0.1-6.7-3.6-8-7.8c-2.8-9-5.9-17.9-8.8-26.8C668.9,635,668.5,635.1,668,635.1z"/>
	<path fill="#FFFFFF" d="M281.3,660.7c-0.1-11.6,0.7-23.3-1.1-34.9c-0.4-2.5-2.2-6.2,0.8-7.6c3.9-1.8,8.8-3.4,12.7-0.7
		c2.2,1.6,3.3,1.4,5.4,0.4c8.8-4.4,17.7-4.7,25.8,1.3c8.1,6.1,10.9,15,9.7,24.8c-2.6,20.5-13.3,28.4-34.1,25.5
		c-2.8-0.4-3.4,0.5-3.4,2.9c0,4.2,0,8.5,0,12.7c0,8.4-0.1,8.1-8.5,8.6c-6.7,0.4-7.7-2.6-7.4-8.3C281.6,677.2,281.3,669,281.3,660.7z
		 M318.5,641.6c0.3-5.4-1.4-10.6-6.9-14c-4.3-2.6-8.6-1.4-12.7,0.7c-4,2-2.1,5.4-2,8.4c0.1,4.9,0.2,9.7,0.3,14.6
		c0.2,6.4,3.4,9,9.7,8.1C314.3,658.4,318.5,652.3,318.5,641.6z"/>
	<path fill="#FFFFFF" d="M275.5,648c0,4.4,0,8.9,0,13.3c0,8.1-0.3,7.9-9.5,8.2c-7.3,0.2-6.5-4.3-6.2-8.7c0.5-7.4,1.6-14.8,0.8-22.2
		c-1.1-9.9-6.5-13.1-15.8-9.9c-3.5,1.2-5,3.4-4.9,7.1c0.2,9.3-0.1,18.6,0.3,28c0.2,4.6-1.5,5.7-5.9,5.7c-10.1,0-10.6-0.1-9.8-10.2
		c1.6-20.5,0.9-41.1-0.7-61.5c-0.6-8.6,5-6.2,9.3-6.8c5.3-0.7,7.2,1.4,6.9,6.7c-0.4,6.1-0.2,12.3-0.2,18.4c0,2.9,1,4.1,3.8,2.3
		c2.5-1.6,5.3-2.7,8.2-3.1c15.9-2.3,23.7,4.5,23.6,20.6C275.5,640,275.6,644,275.5,648C275.6,648,275.5,648,275.5,648z"/>
	<path fill="#FFFFFF" d="M170.6,633.2c0-9.7,0.2-19.5-0.1-29.2c-0.1-4.8,1.2-7,6.4-6.8c8.2,0.3,16.5-0.1,24.8,0.1
		c11.1,0.3,19.9,6.4,21.6,14.5c2.4,11.6-2.6,21.8-13.2,26.8c-5.4,2.6-11.2,4.3-17.2,3.9c-5.3-0.3-6.7,2-6.3,6.7
		c0.4,4.6,0.5,9.3,0.8,13.9c0.3,4.2-1.1,6.5-5.7,6.2c-1.9-0.2-3.8-0.1-5.7,0c-4.2,0.3-5.6-1.7-5.5-5.7c0.2-5.1,0.1-10.2,0.2-15.2
		c0-5.1,0-10.2,0-15.2C170.7,633.2,170.7,633.2,170.6,633.2z M193.1,608.4c-5.1-0.6-7.8,2.4-6.3,7.5c1.5,5.2-5.2,13.9,4.6,15.5
		c9.5,1.5,16.3-4.2,16.4-11.5C208,612.4,203.1,608.4,193.1,608.4z"/>
	<path fill="#FFFFFF" d="M822.6,634.1c4.7-3.6,7.8-8.6,11.5-13.2c3-3.8,13.7-6.4,17.8-4.3c2.6,1.3,0.9,2.9,0,4.1
		c-3.7,4.9-8.1,9.3-12.9,13.1c-3.1,2.4-3.4,4.1-0.5,7c6.4,6.2,11,13.9,16,21.3c1.1,1.7,2.9,3.6,2,5.8c-1,2.5-3.7,1.2-5.7,1.6
		c-7.4,1.3-12.2-1.4-15.8-8.2c-3.1-5.9-7.2-11.4-12.8-16.7c-1.3,6.8-1,12.9-0.4,18.9c0.7,7.9-4.6,5.7-8.6,6.1
		c-4.9,0.5-7.7-0.9-7.2-6.6c1.5-14.4,0.7-28.8,0.7-43.2c0-7.4-0.6-14.8-1.2-22.2c-0.4-4.7,1.5-6.7,6.1-6.4c1.7,0.1,3.4,0,5.1-0.2
		c3.8-0.4,5.2,1.1,5.1,5.1c-0.3,11.4-0.3,22.9-0.3,34.3C821.5,631.6,821,632.9,822.6,634.1z"/>
	<path fill="#FFFFFF" d="M710.1,643.7c0-16.9,11.7-28.6,28.7-28.6c16.4,0,27.6,10.9,27.6,26.7c0,17-12.2,29-29.4,28.9
		C720.3,670.7,710,660.3,710.1,643.7z M750.8,643.2c-0.8-3.1-1.2-6.2-2.4-9.1c-1.9-4.6-5.5-7.7-10.6-7.6c-5.1,0.1-8.8,3.1-10.5,7.8
		c-2.1,5.9-2.1,12.1,0.5,17.9c2.1,4.5,5.7,7.6,10.9,7.3c5.1-0.2,8.5-3.6,10.3-8.2C749.9,648.8,750.1,646,750.8,643.2z"/>
	<path fill="#FFFFFF" d="M607.2,670.7c-12.5,0.5-22.4-3.2-28.3-14.7c-5.2-10.2-3-24.4,5-33.2c7-7.6,20.8-10.3,31.3-5.9
		c8.7,3.6,14.4,16,11.6,25.1c-0.9,3.1-3.2,3-5.5,3c-7.8,0.1-15.7,0.2-23.5,0.3c-1.6,0-3.6-0.6-4.6,1.2c-1.1,2,0.4,3.7,1.5,5.1
		c4.4,5.8,10.6,7.2,17.5,6.6c2.1-0.2,4.2-1.1,6.2-0.9c2.5,0.2,6-3.5,7.4,1.3c1.5,5-1.2,9.5-5.9,10.8
		C615.8,670.5,611.4,670.9,607.2,670.7z M601.4,636.7c1.5,0,3,0.1,4.4,0c2.6-0.2,6.2,0.4,6.6-3.1c0.4-3.5-2.3-5.6-5.7-6.7
		c-2.3-0.7-4.6-1.1-6.8-0.1c-3.6,1.5-7.7,3.6-6.9,7.9c0.7,3.8,5,1.4,7.7,2C601,636.8,601.2,636.7,601.4,636.7z"/>
	<path fill="#FFFFFF" d="M357.7,633.4c0-10,0.2-19.9-0.1-29.9c-0.1-4.6,1.5-6.4,6.2-6.3c11.4,0.2,22.9,0.2,34.3,0
		c4.4-0.1,6.1,1.6,5.9,6c-0.2,4.1-0.3,7.8-6,7.5c-6.1-0.4-12.2-0.6-18.4-1.1c-4.5-0.3-6.4,1.1-6.4,6c0,14.2,1.1,15.4,16.2,13
		c5.2-0.8,8.2-0.5,8.1,5.8c-0.1,5.3-1.7,7-7.3,6.1c-16.8-2.6-16.9-2.3-16.8,14.6c0,1.9,0,3.8,0,5.7c0,8.5,0,8.2-8.4,8.5
		c-5.7,0.2-8-1.4-7.7-7.5C358.1,652.5,357.7,643,357.7,633.4z"/>
	<path fill="#FFFFFF" d="M486.5,648.9c0.2,5.3,0.2,10.6,0.8,15.8c0.4,3.4-0.7,5.1-3.9,4.6c-3.5-0.4-7.5,2.4-10.7-1.5
		c-1-1.2-2.7,0.3-4.1,0.8c-4.2,1.8-8.5,2.2-13,2c-6.8-0.2-12-3.1-14.4-9.5c-2.3-6.3-0.6-12.1,4.1-16.9c5.6-5.7,13-6.5,20.4-7.5
		c2.2-0.3,5.8,1.2,6.1-2.7c0.3-3.5-1.8-5.8-5.3-7c-5.9-2-11.7-0.6-17.5,0.2c-2,0.3-5.1,2.3-5.7-1.4c-0.6-3.4-1.1-7.9,3.5-9.1
		c9.9-2.5,20.1-3.3,30,0c6.8,2.3,9.7,7.9,9.9,14.8c0.2,5.7,0,11.4,0,17.1C486.7,648.9,486.6,648.9,486.5,648.9z M472.1,651.3
		c0-5.3-0.6-6.1-4.2-5.9c-7.9,0.3-13.1,3.8-12.8,8.6c0.3,5,4.1,5.4,7.8,5.5C469.5,659.7,472.2,657.2,472.1,651.3z"/>
	<path fill="#FFFFFF" d="M420.3,620.7c5.1-4.9,10.7-6.5,17.2-5.3c3.3,0.6,5.8,2.1,4.3,6c-1.3,3.3,0.2,8.7-6.5,8
		c-11.2-1.2-14.4,1.8-14.5,13.1c0,7.2-0.2,14.4,0.2,21.6c0.2,4.3-1.5,5.7-5.5,5.4c-1.5-0.1-3-0.1-4.4,0c-4.4,0.3-5.9-1.4-5.6-5.9
		c1-13.7,1.3-27.4-0.8-41.1c-0.4-2.3-2-5.6,2.2-5.9c4.2-0.3,9-4.2,12.4,1.6C419.6,618.7,419.8,619.5,420.3,620.7z"/>
	<path fill="#FFFFFF" d="M784.6,620.4c4.7-4.7,10.4-6.2,16.9-5c3.4,0.6,5.7,2.2,4.2,6.1c-1.3,3.3,0.2,8.7-6.5,7.9
		c-10.9-1.3-14.4,1.9-14.4,12.6c0,7.4-0.1,14.8,0.1,22.2c0.1,3.8-0.9,5.6-4.9,5.3c-2.1-0.2-4.2-0.1-6.3,0c-3.3,0.1-4.5-1.6-4.3-4.7
		c1.1-14.8,1.4-29.5-1.1-44.2c-0.2-1.3-0.4-2.5,0.8-3.5C773,613.6,781.8,615.4,784.6,620.4z"/>
</g>
</svg>
